<?xml version="1.0" encoding="utf-8"?>
<!-- Generator: Adobe Illustrator 16.2.1, SVG Export Plug-In . SVG Version: 6.00 Build 0)  -->
<!DOCTYPE svg PUBLIC "-//W3C//DTD SVG 1.1//EN" "http://www.w3.org/Graphics/SVG/1.1/DTD/svg11.dtd">
<svg version="1.1" id="Layer_1" xmlns="http://www.w3.org/2000/svg" xmlns:xlink="http://www.w3.org/1999/xlink" x="0px" y="0px"
	 width="841.9px" height="595.3px" viewBox="0 0 841.9 595.3" style="enable-background:new 0 0 841.9 595.3;" xml:space="preserve"
	>
<g id="XMLID_80_">
	<g id="XMLID_81_">
		<g id="XMLID_82_">
			<g id="XMLID_189_">
				<path id="XMLID_395_" style="fill:#E4DFD5;" d="M109.6,216.4l40.6,140.1l20.6-10.3l-6.1-18.9l23.3-11.7l11.3,16.3l23.5-11.7
					l-87.9-116.4L109.6,216.4z M175.4,297.7l-17.7,8.9l-22.8-65.8l0.3-0.2L175.4,297.7z"/>
			</g>
			<g id="XMLID_187_">
				<polygon id="XMLID_188_" style="fill:#E4DFD5;" points="471.2,225.4 502.3,228.1 504.1,206.8 473,204.2 476.6,162.4 
					512.5,165.5 514.3,144.4 452.3,139.1 440.1,282.1 466.2,284.3 				"/>
			</g>
			<g id="XMLID_183_">
				<path id="XMLID_184_" style="fill:#E4DFD5;" d="M377.8,284.5c23.3-2.1,36.1-14.2,34-37.9l-6.2-70.5
					c-2.2-25.4-15.6-36.7-41.1-34.5l-38.6,3.4L338.5,288L377.8,284.5z M365,163c8.5-0.7,13.1,2.8,14.1,13.9l6.2,70.3
					c0.9,10.7-3.4,15.5-11.5,16.2l-11.1,1L353.9,164L365,163z"/>
			</g>
			<g id="XMLID_181_">
				<path id="XMLID_182_" style="fill:#E4DFD5;" d="M115.2,335.9c-12.4-16.7-35-18.9-55.6-20.5c-14-1.1-23-3.1-28.3-10.2l-0.8-1.1
					c-5.4-7.3-2.6-14.3,2.8-18.3c5.3-3.9,12-4.7,20.4,6.5c3.9,5.3,5.4,8.2,6.9,11.5l17.5-11.6c-2.9-5.4-5.4-9.4-8.9-14.1
					c-11.7-15.7-29.9-22.2-49.6-7.5c-20.4,15.2-18.9,35.5-8.3,49.8l0.9,1.2c10.2,13.6,28.9,17.6,48.4,19.5
					c22.5,2.3,31.2,5,36.2,11.6l1.5,2c5.1,6.8,4.3,14.2-3,19.7c-6.4,4.7-13.7,5-20.8-4.5c-2.8-3.8-6.2-9.5-7.8-13l-18,11.5
					c1.5,3.3,5.4,10.1,8.7,14.5c13.8,18.5,31.9,20.7,50.4,7c19.2-14.3,21.6-34.9,9-51.7L115.2,335.9z"/>
			</g>
			<g id="XMLID_179_">
				<path id="XMLID_180_" style="fill:#E4DFD5;" d="M487.5,350.3c21.7-0.9,43.4-2.2,65.1-4.8c-21.7-2.6-43.4-3.9-65.1-4.8
					c-10.9-0.6-21.7-0.7-32.6-1l-32.6-0.3l-32.6,0.3c-10.9,0.3-21.7,0.5-32.6,1c-21.7,0.9-43.4,2.2-65.1,4.8
					c21.7,2.5,43.4,3.9,65.1,4.8c10.9,0.6,21.7,0.7,32.6,1l32.6,0.3l32.6-0.3C465.8,350.9,476.6,350.8,487.5,350.3z"/>
			</g>
			<g id="XMLID_136_">
				<path id="XMLID_141_" style="fill:#E4DFD5;" d="M608.3,157.9c-27,7.4-60.7,29-73.8,58.4c-5.4,12.2-7.3,19.6-7.3,33
					c0,13.1,2.7,24.6,8.2,34.9c3.5,6.5,9.2,11.5,13.8,14.7c0.9-20.5,6.7-61.8,36.6-101.4c0,0-16.4,65.3-12.1,102.4
					c5.6-2.1,9.7-4.2,9.7-4.2c20.7-12.3,28.4-24.1,34.2-45C628,212.8,608.8,192,608.3,157.9z"/>
			</g>
			<g id="XMLID_131_">
				<polygon id="XMLID_132_" style="fill:#E4DFD5;" points="273.5,154.8 252.1,160.9 273.1,234.1 272.2,234.3 224.5,168.9 
					200.6,175.8 240.2,313.6 261.6,307.5 238.2,225.8 239.1,225.6 291.7,298.8 313.2,292.7 				"/>
			</g>
			<g id="XMLID_127_">
				<path id="XMLID_128_" style="fill:#E4DFD5;" d="M821.7,269.6l-31.2-22.9l-84.8,115.7l31.8,23.3c18.9,13.8,36.5,13.2,50.5-6
					l41.8-57.1C844.9,302.1,842.4,284.8,821.7,269.6z M809.4,305.8l-41.7,57c-6.4,8.7-12.7,9.4-19.3,4.6l-9-6.6l59.6-81.3l9,6.6
					C814.9,291,816,296.8,809.4,305.8z"/>
			</g>
			<g id="XMLID_110_">
				<path id="XMLID_111_" style="fill:#E4DFD5;" d="M696.6,280.3l0.3-0.7c15.8,2.7,27-5.7,35.7-24c11.1-23.3,2.4-40.7-16.1-49.5
					l-36.1-17.2l-61.7,129.5l23.7,11.3l24.8-52l7,3.3c8.2,3.9,8.2,9.6,1.1,25.8c-3.6,7.9-6.2,14.2-10.1,23.4
					c-1.9,4.5-2.6,7.3-2.3,9.2l23.9,11.4c0.4-5.2,1.4-9,7.5-22.4c1.4-2.9,3.6-8.1,5.4-11.7C707.3,299.6,708.4,289.5,696.6,280.3z
					 M684.1,263.5l-8.3-4l19.2-40.2l8.7,4.1c7.5,3.6,10.6,9.8,3.6,24.5C698.8,265.7,691.1,266.8,684.1,263.5z"/>
			</g>
			<g id="XMLID_83_">
				<g id="XMLID_106_">
					<path id="XMLID_107_" style="fill:#E4DFD5;" d="M289.7,409.7c0-11.2-6.6-17.9-17.6-17.9h-19.6v67.3h13.4v-26.7h3.4
						c4.1,0,5.2,2.1,5.4,10.2c0.1,2.7,0.2,5,0.3,7.6c0.1,1.3,0.1,2.7,0.2,4.2c0.1,2.4,0.4,3.7,1,4.5l0.1,0.1h13.5l-0.2-0.5
						c-0.9-2.2-1.2-3.8-1.3-10.7c0-0.7,0-1.7,0-2.7c0-1.1,0-2.3,0-3.3c-0.2-8.3-1.6-13.2-8.4-14.9
						C286.5,424.9,289.7,419.4,289.7,409.7z M269.9,422.3h-4.1v-19.9h4.3c3.1,0,6.3,1.1,6.3,9.2
						C276.3,421.1,272.9,422.3,269.9,422.3z"/>
				</g>
				<g id="XMLID_102_">
					<path id="XMLID_103_" style="fill:#E4DFD5;" d="M208.2,390.7c-11.9,0-19,6.9-19,18.3v33.2c0,11.3,7.1,18,19,18
						c11.7,0,18.7-6.7,18.7-18V409C227,397.4,220.1,390.7,208.2,390.7z M213.5,444.3c0,3.7-2,5.9-5.3,5.9c-3.5,0-5.6-2.3-5.6-6
						v-37.5c0-3.8,2-5.9,5.5-5.9c3.3,0,5.4,2.2,5.4,5.9V444.3z"/>
				</g>
				<g id="XMLID_100_">
					<path id="XMLID_101_" style="fill:#E4DFD5;" d="M639.8,418.6L639.8,418.6c-5-4.2-7.9-7.4-7.9-11.4v-0.6c0-4.2,3.2-5.7,6-5.7
						c2.4,0,5.6,0.8,5.6,7.7c0,3-0.3,4.5-0.6,6.1l-0.1,0.4l10.9,0.6l0.1-0.3c0.5-2.8,0.6-5,0.6-7.8c0-10.6-6.5-16.9-17.4-16.9
						c-13.2,0-17.9,8.9-17.9,16.6v0.7c0,8.3,6.7,15.2,13.2,21c8.1,7.1,10.5,10.4,10.5,14.1v1.1c0,3.8-2.4,6.1-6.5,6.1
						c-4.2,0-6.4-2.4-6.4-7.1c0-2.2,0.4-5.2,0.7-6.9l0.1-0.4l-11-0.8l-0.1,0.3c-0.3,1.6-0.8,5.2-0.8,7.9c0,10.8,6.5,16.9,17.8,16.9
						c11.4,0,18.7-6.7,18.7-17.1v-1.2C655.5,431.8,646.8,424.5,639.8,418.6z"/>
				</g>
				<g id="XMLID_96_">
					<path id="XMLID_97_" style="fill:#E4DFD5;" d="M576.4,391.8h-19v67.3h19.4c12,0,18.3-5.7,18.3-16.5v-32.9
						C595,397.7,588.9,391.8,576.4,391.8z M581.6,441.9c0,4.5-1.8,6.6-5.8,6.6h-5v-46.1h5c4.1,0,5.8,1.9,5.8,6.6V441.9z"/>
				</g>
				<g id="XMLID_92_">
					<path id="XMLID_93_" style="fill:#E4DFD5;" d="M533.4,409.7c0-11.2-6.6-17.9-17.6-17.9h-19.6v67.3h13.4v-26.7h3.4
						c4.1,0,5.2,2.1,5.5,10.2c0.1,2.7,0.2,5,0.3,7.6c0.1,1.3,0.1,2.7,0.2,4.2c0.1,2.4,0.4,3.7,1,4.5l0.1,0.1h13.5l-0.2-0.5
						c-0.9-2.2-1.2-3.8-1.3-10.7c0-0.7,0-1.7,0-2.7c0-1.1,0-2.3,0-3.3c-0.2-8.3-1.6-13.2-8.4-14.9
						C530.2,424.9,533.4,419.4,533.4,409.7z M513.6,422.3h-4.1v-19.9h4.3c3.1,0,6.3,1.1,6.3,9.2C520,421.1,516.6,422.3,513.6,422.3z
						"/>
				</g>
				<g id="XMLID_90_">
					<polygon id="XMLID_91_" style="fill:#E4DFD5;" points="398,419.7 385.2,419.7 385.2,391.8 371.8,391.8 371.8,459.2 
						385.2,459.2 385.2,430.8 398,430.8 398,459.2 411.4,459.2 411.4,391.8 398,391.8 					"/>
				</g>
				<g id="XMLID_88_">
					<path id="XMLID_89_" style="fill:#E4DFD5;" d="M348.3,415.8c0,0,0-5.4,0-8.7c0-10.7-5.9-16.4-17-16.4
						c-11.5,0-18.4,7.1-18.4,18.9v32.2c0,16.3,11.5,18.7,18.3,18.7c11,0,17.1-5.9,17.1-16.6c0-3-0.1-8.8-0.1-8.8l-10.7,0.1
						c0,0,0,4.9,0,7.2c0,6.6-2.6,7.5-5.4,7.5c-3.7,0-5.5-1.9-5.5-5.7v-37.5c0-2.7,1.4-5.6,5.5-5.6c2.7,0,5.4,0.9,5.4,7.5
						c0,2.3,0,7.2,0,7.2L348.3,415.8z"/>
				</g>
				<g id="XMLID_84_">
					<path id="XMLID_85_" style="fill:#E4DFD5;" d="M460.9,391.8h-14.3l-12.9,67.3h11.9l1.5-9.1H459l1.3,8.8l0,0.3h13.4l-12.8-67
						L460.9,391.8z M448.6,439.2l4.1-29.8l4.6,29.8H448.6z"/>
				</g>
			</g>
		</g>
	</g>
</g>
<g id="XMLID_76_">
	<path id="XMLID_617_" style="fill:#E4DFD5;" d="M221.5,539.4c0.4,0.3,0.6,0.8,0.2,1.2c-3.3,4.4-8.6,7.1-14.1,7.1
		c-9.8,0-17.6-7.9-17.6-17.6c0-9.8,7.9-17.7,17.6-17.7c5.6,0,10.7,2.5,14.1,7c0.3,0.4,0.2,0.9-0.2,1.2l-4.3,3
		c-0.4,0.2-0.8,0.1-1.2-0.2c-2-2.6-5-4.1-8.4-4.1c-5.9,0-10.7,4.9-10.7,10.7c0,5.9,4.8,10.7,10.7,10.7c3.3,0,6.4-1.5,8.4-4.1
		c0.3-0.4,0.8-0.4,1.2-0.2L221.5,539.4z"/>
	<path id="XMLID_615_" style="fill:#E4DFD5;" d="M229.4,512.7h5.3c0.5,0,0.8,0.3,0.8,0.8v33c0,0.5-0.3,0.8-0.8,0.8h-5.3
		c-0.5,0-0.8-0.3-0.8-0.8v-33C228.6,513,228.9,512.7,229.4,512.7z"/>
	<path id="XMLID_612_" style="fill:#E4DFD5;" d="M253.9,512.3c9.8,0,17.7,7.9,17.7,17.7c0,9.8-7.9,17.6-17.7,17.6h-10
		c-0.5,0-0.8-0.3-0.8-0.8v-33.6c0-0.5,0.3-0.8,0.8-0.8H253.9z M253.9,540.7c5.9,0,10.7-4.8,10.7-10.7c0-5.9-4.9-10.7-10.7-10.7h-3.1
		c-0.5,0-0.8,0.3-0.8,0.8v19.7c0,0.5,0.3,0.8,0.8,0.8H253.9z"/>
	<path id="XMLID_610_" style="fill:#E4DFD5;" d="M295.3,519.6h-9.1c-0.5,0-0.8,0.3-0.8,0.8v5.3c0,0.5,0.3,0.8,0.8,0.8h9.1
		c0.5,0,0.8,0.3,0.8,0.8v5.3c0,0.5-0.3,0.8-0.8,0.8h-9.1c-0.5,0-0.8,0.3-0.8,0.8v5.3c0,0.5,0.3,0.8,0.8,0.8h9.1
		c0.5,0,0.8,0.3,0.8,0.8v5.3c0,0.5-0.3,0.8-0.8,0.8h-16c-0.5,0-0.8-0.3-0.8-0.8v-33c0-0.5,0.3-0.8,0.8-0.8h16c0.5,0,0.8,0.3,0.8,0.8
		v5.3C296.1,519.3,295.8,519.6,295.3,519.6z"/>
	<path id="XMLID_607_" style="fill:#E4DFD5;" d="M328.6,546.1c0.3,0.6,0,1.3-0.7,1.3h-6.1c-0.4,0-0.6-0.1-0.7-0.4l-5.8-9.8
		c0-0.1-0.2-0.2-0.3-0.2h-3.6c-0.5,0-0.8,0.3-0.8,0.8v8.8c0,0.5-0.3,0.8-0.8,0.8h-5.3c-0.5,0-0.8-0.3-0.8-0.8v-33.3
		c0-0.5,0.3-0.8,0.8-0.8h10.5c6.8,0,12.3,5.5,12.3,12.3c0,4.1-2,7.6-5,9.8c-0.2,0.1-0.3,0.3-0.1,0.6L328.6,546.1z M320.2,524.6
		c0-3-2.4-5.4-5.4-5.4h-3.6c-0.5,0-0.8,0.3-0.8,0.8v9c0,0.5,0.3,0.8,0.8,0.8h1.5h2.1c1,0,1.8-0.2,2.6-0.7
		C319.1,528.3,320.2,526.6,320.2,524.6z"/>
	<path id="XMLID_604_" style="fill:#E4DFD5;" d="M364,512.3c9.8,0,17.7,7.9,17.7,17.7c0,9.8-7.9,17.6-17.7,17.6h-10
		c-0.5,0-0.8-0.3-0.8-0.8v-33.6c0-0.5,0.3-0.8,0.8-0.8H364z M364,540.7c5.9,0,10.7-4.8,10.7-10.7c0-5.9-4.9-10.7-10.7-10.7h-3.1
		c-0.5,0-0.8,0.3-0.8,0.8v19.7c0,0.5,0.3,0.8,0.8,0.8H364z"/>
	<path id="XMLID_599_" style="fill:#E4DFD5;" d="M437,512.7h5.3c0.5,0,0.8,0.3,0.8,0.8v32.8c0,0.4-0.4,0.6-0.7,0.3L425.7,530
		c-0.3-0.3-0.7,0-0.7,0.3v16.1c0,0.5-0.3,0.8-0.8,0.8h-5.3c-0.5,0-0.8-0.3-0.8-0.8v-32.8c0-0.4,0.4-0.6,0.7-0.3l16.6,16.5
		c0.3,0.3,0.7,0.1,0.7-0.3v-16.1C436.1,513,436.5,512.7,437,512.7z"/>
	<path id="XMLID_597_" style="fill:#E4DFD5;" d="M466.8,519.6h-9.1c-0.5,0-0.8,0.3-0.8,0.8v5.3c0,0.5,0.3,0.8,0.8,0.8h9.1
		c0.5,0,0.8,0.3,0.8,0.8v5.3c0,0.5-0.3,0.8-0.8,0.8h-9.1c-0.5,0-0.8,0.3-0.8,0.8v5.3c0,0.5,0.3,0.8,0.8,0.8h9.1
		c0.5,0,0.8,0.3,0.8,0.8v5.3c0,0.5-0.3,0.8-0.8,0.8h-16c-0.5,0-0.8-0.3-0.8-0.8v-33c0-0.5,0.3-0.8,0.8-0.8h16c0.5,0,0.8,0.3,0.8,0.8
		v5.3C467.6,519.3,467.3,519.6,466.8,519.6z"/>
	<path id="XMLID_508_" style="fill:#E4DFD5;" d="M518.5,546.1c0.3,0.6,0,1.3-0.7,1.3h-6.1c-0.4,0-0.6-0.1-0.7-0.4l-5.8-9.8
		c0-0.1-0.2-0.2-0.3-0.2h-3.6c-0.5,0-0.8,0.3-0.8,0.8v8.8c0,0.5-0.3,0.8-0.8,0.8h-5.3c-0.5,0-0.8-0.3-0.8-0.8v-33.3
		c0-0.5,0.3-0.8,0.8-0.8h10.5c6.8,0,12.3,5.5,12.3,12.3c0,4.1-2,7.6-5,9.8c-0.2,0.1-0.3,0.3-0.1,0.6L518.5,546.1z M510.2,524.6
		c0-3-2.4-5.4-5.4-5.4h-3.6c-0.5,0-0.8,0.3-0.8,0.8v9c0,0.5,0.3,0.8,0.8,0.8h1.5h2.1c1,0,1.8-0.2,2.6-0.7
		C509,528.3,510.2,526.6,510.2,524.6z"/>
	<path id="XMLID_506_" style="fill:#E4DFD5;" d="M525.5,512.7h5.3c0.5,0,0.8,0.3,0.8,0.8v33c0,0.5-0.3,0.8-0.8,0.8h-5.3
		c-0.5,0-0.8-0.3-0.8-0.8v-33C524.6,513,525,512.7,525.5,512.7z"/>
	<path id="XMLID_504_" style="fill:#E4DFD5;" d="M558.1,526.2l13.9-2.1c0.5-0.1,0.9,0.2,0.9,0.7l0.4,2.3c0.7,4.8-0.4,9.7-3.3,13.5
		c-2.8,3.7-6.8,6.1-11.5,6.8c-4.7,0.7-9.3-0.5-13.1-3.3c-4.1-3-6.6-7.4-7.1-12.4c-0.4-4.1,0.6-8.1,2.9-11.5
		c2.8-4.3,7.1-6.9,12.1-7.7c5-0.8,10.1,0.6,14,3.9c0.4,0.3,0.4,0.9,0.1,1.2l-3.6,3.9c-0.3,0.3-0.8,0.4-1.2,0
		c-2.4-1.8-5.3-2.7-8.3-2.2c-2.8,0.4-5.3,1.9-7,4.2c-2,2.7-2.6,6-1.7,9.3c0.5,1.8,1.4,3.5,2.9,4.8c2.5,2.4,5.7,3.4,9,2.9
		c2.8-0.4,5.3-1.9,7-4.3c0.9-1.2,1.5-2.4,1.8-3.8c0.1-0.3-0.1-0.5-0.5-0.5l-6.7,1c-0.5,0.1-0.8-0.2-1-0.7l-0.8-5.2
		C557.4,526.6,557.6,526.2,558.1,526.2z"/>
	<path id="XMLID_502_" style="fill:#E4DFD5;" d="M601.4,512.7h5.3c0.5,0,0.8,0.3,0.8,0.8v33c0,0.5-0.3,0.8-0.8,0.8h-5.3
		c-0.5,0-0.8-0.3-0.8-0.8v-12.2c0-0.5-0.3-0.8-0.8-0.8h-11.4c-0.5,0-0.8,0.3-0.8,0.8v12.2c0,0.5-0.3,0.8-0.8,0.8h-5.3
		c-0.5,0-0.8-0.3-0.8-0.8v-33c0-0.5,0.3-0.8,0.8-0.8h5.3c0.5,0,0.8,0.3,0.8,0.8v12.2c0,0.5,0.3,0.8,0.8,0.8h11.4
		c0.5,0,0.8-0.3,0.8-0.8v-12.2C600.5,513,600.9,512.7,601.4,512.7z"/>
	<path id="XMLID_500_" style="fill:#E4DFD5;" d="M614.7,512.7h24c0.5,0,0.8,0.3,0.8,0.8v5.3c0,0.5-0.3,0.8-0.8,0.8H631
		c-0.5,0-0.8,0.3-0.8,0.8v26.1c0,0.5-0.3,0.8-0.8,0.8H624c-0.5,0-0.8-0.3-0.8-0.8v-26.1c0-0.5-0.3-0.8-0.8-0.8h-7.7
		c-0.5,0-0.8-0.3-0.8-0.8v-5.3C613.9,513,614.2,512.7,614.7,512.7z"/>
	<g id="XMLID_755_">
		<path id="XMLID_756_" style="fill:#E4DFD5;" d="M390.9,508.3c-4.1,6.7-6.8,17.7-3.8,26.2c1.3,3.6,2.3,5.4,4.9,8.2
			c2.5,2.7,5.3,4.5,8.4,5.5c2,0.6,4.1,0.6,5.7,0.3c-3.8-4.4-10.6-14-12.1-27.8c0,0,9.3,16.5,17.3,23.3c0.7-1.5,1.2-2.7,1.2-2.7
			c1.9-6.5,1.2-10.4-1.7-15.8C405.6,515.7,397.6,515.2,390.9,508.3z"/>
	</g>
</g>
</svg>
